<?xml version="1.0" encoding="utf-8" ?><svg xmlns="http://www.w3.org/2000/svg" xmlns:xlink="http://www.w3.org/1999/xlink" width="2202" height="430" viewBox="0 0 2202 430"><path fill="#C73834" d="M516.695 28.2895C538.827 26.1998 556.722 31.3579 568.738 51.1664C606.388 113.235 642.651 176.592 679.379 239.203L733.183 330.666C738.535 339.75 755.157 366.499 758.627 374.825L431.017 374.917C431.825 373.768 432.543 372.576 433.264 371.372C449.838 343.686 463.762 314.476 480.63 286.964C522.884 286.478 565.14 286.206 607.396 286.148C603.012 275.909 589.263 253.411 583.153 243.17L549.991 186.778C544.118 175.206 533.671 159.064 526.525 148.136C491.681 206.947 460.487 269.653 426.54 328.971C418.255 343.447 409.878 361.545 401.333 374.953L351.54 374.863C359.148 359.662 371.57 338.749 377.676 325.382C369.157 319.7 361.379 314.441 352.429 309.426C337.279 331.045 320.57 353.148 305.267 374.907L258.458 374.897L258.832 374.247C264.016 365.313 273.06 353.625 279.192 344.837L315.128 292.967L407.41 159.989C423.23 137.55 438.766 114.913 454.016 92.083C464.9 75.9693 476.347 58.1602 489.128 43.4984C496.763 34.7392 505.784 31.1685 516.695 28.2895ZM371.303 281.883L391.665 293.886L393.871 293.866C401.445 285.048 418.568 251.977 424.322 240.829C420.937 238.648 410.788 231.495 407.482 231.571C395.378 247.149 382.763 265.632 371.303 281.883ZM427.213 202.974L439.776 211.141C443.639 207.335 461.701 175.11 465.142 168.531C463.292 167.438 456.713 163.373 455.083 162.922C450.914 168.697 430.079 197.334 427.213 202.974ZM477.163 139.65C486.63 135.495 502.817 100.218 508.335 90.0032C508.739 89.2558 508.712 87.6887 508.604 86.8034C502.634 94.9297 476.585 128.977 475.591 135.777L477.163 139.65Z"/><path fill="#FFFEFE" fill-opacity="0.43137255" d="M455.083 162.922C456.713 163.373 463.292 167.438 465.142 168.531C461.701 175.11 443.639 207.335 439.776 211.141L427.213 202.974C430.079 197.334 450.914 168.697 455.083 162.922Z"/><path fill="#FFFEFE" fill-opacity="0.95294118" d="M508.604 86.8034C508.712 87.6887 508.739 89.2558 508.335 90.0032C502.817 100.218 486.63 135.495 477.163 139.65L475.591 135.777C476.585 128.977 502.634 94.9297 508.604 86.8034Z"/><path fill="#273B5F" d="M163.42 35.3681C169.458 34.3968 188.12 34.7101 194.741 34.7262L252.516 34.8757L455.836 35.33C442.5 58.4787 413.345 99.7591 397.293 121.976L264.973 121.836C253.208 121.817 240.848 121.873 229.129 121.706C176.413 120.95 137.113 114.339 109.642 167.668C135.661 168.645 168.051 167.846 194.522 167.858L367.684 168.033C357.849 181.531 349.268 194.419 340.107 208.335C332.799 219.437 325.185 228.494 318.791 240.368C300.126 241.222 274.92 240.446 255.75 240.437L118.08 240.139C115.215 240.159 111.507 239.97 109.707 241.792C110.08 248.228 120.235 260.714 124.774 265.316C133.96 274.641 145.458 281.359 158.091 284.786C177.22 290.059 204.434 288.74 224.975 288.713C245.202 288.638 265.43 288.677 285.657 288.83C268.763 313.804 242.91 349.035 228.245 373.975C165.793 374.239 128.205 377.814 73.6505 335.87C40.5535 309.673 20.4257 269.966 15.8176 228.502C5.06467 131.746 63.9011 46.4743 163.42 35.3681Z"/><path fill="#273B5F" d="M962.271 55.4844C983.927 54.7648 1027.82 53.9657 1046.58 63.7643C1057.77 69.4677 1066.19 79.444 1069.92 91.4342C1079.75 123.018 1063.93 147.353 1033.42 156.78C1047.18 171.248 1065.89 194.847 1079.75 207.118C1084.41 187.908 1097.34 163.843 1105.74 145.066C1118.99 115.486 1131.92 85.2837 1145.91 56.1029C1156.5 55.8127 1168.37 56.0685 1179.06 56.057C1192.53 89.2568 1208.87 121.132 1222.19 154.678C1228.39 167.508 1242.93 202.528 1249.31 211.946L1215.8 212.013C1213.66 204.802 1205.86 192.804 1202.45 182.7L1122.07 182.794C1118.06 190.391 1110.91 203.953 1108.8 212.047L1045.85 212.016C1035.39 202.731 1010.38 172.037 999.835 159.987L971.63 159.962C972.744 177.056 972.179 194.659 972.574 211.939L942.864 211.991L943.643 108.696C943.694 91.073 942.584 73.7126 943.773 56.1134C949.755 56.1066 956.252 55.7262 962.271 55.4844ZM971.127 83.9427C971.74 100.47 972.372 116.79 971.701 133.341C987.717 133.48 1010.88 134.638 1025.75 130.887C1030.31 130.134 1033.3 127.962 1037.13 125.437C1057.48 82.1957 1018.96 83.2587 989.683 83.4107C983.606 83.6286 977.177 83.9601 971.127 83.9427ZM1132.73 154.7L1162.89 154.768L1190.2 154.718C1186.9 146.374 1165.78 96.2963 1161.82 92.7806L1160.58 92.3496C1152.62 110.395 1141.88 138.421 1132.73 154.7Z"/><path fill="#273B5F" d="M1783.49 53.4546C1828.14 49.149 1867.86 81.8005 1872.28 126.449C1876.69 171.097 1844.14 210.896 1799.5 215.422C1754.71 219.963 1714.74 187.271 1710.31 142.467C1705.88 97.6631 1738.67 57.7752 1783.49 53.4546ZM1796.49 188.11C1801.43 187.276 1806.61 186.514 1811.26 184.621C1850.34 168.724 1851.23 110.228 1818.89 87.4269C1810.07 81.3216 1799.27 78.7751 1788.66 80.2981C1772.87 82.1876 1762.02 85.7914 1751.72 98.9246C1742.4 110.865 1738.27 126.048 1740.26 141.062C1744.22 172.741 1765.67 188.204 1796.49 188.11Z"/><path fill="#273B5F" d="M1892.49 56.2261C1918.51 55.4561 1980.19 51.8246 2000.87 66.063C2036.9 90.8644 2028.05 146.185 1983.05 156.543C1998.19 171.911 2018.52 195.345 2032.97 211.778L2017.16 211.915L1994.81 211.888C1982.25 195.163 1963.66 177.457 1950.43 159.775L1922.14 159.777C1922.96 176.733 1922.19 194.923 1921.72 211.974L1893.24 211.962C1890.32 184.123 1893.17 146.015 1893.07 117.557C1892.99 96.8212 1892.24 77.0748 1892.49 56.2261ZM1922.2 83.8336C1922.27 100.325 1922.2 116.817 1921.97 133.308C1940.51 133.937 1953.3 135.056 1971.9 131.897C1977.89 130.977 1979.9 129.921 1985.35 127.376C1994.7 115.442 1998.67 100.678 1984.83 90.1153C1974.25 82.0471 1956.93 83.1503 1944.29 83.4222C1937 83.628 1929.48 83.9377 1922.2 83.8336Z"/><path fill="#273B5F" d="M1599.66 55.5277C1605.65 55.3654 1611.63 55.2716 1617.61 55.2466C1639.1 55.136 1666.33 54.5394 1682.39 71.07C1703.13 92.4131 1704.07 129.64 1683.24 151.229C1666.76 168.313 1640.33 166.021 1618.71 165.958L1597.48 165.971C1597.41 181.279 1597.45 196.588 1597.58 211.896C1587.91 212.056 1577.68 211.87 1567.96 211.853C1567.31 181.74 1569.34 147.843 1568.87 117.199C1568.56 96.7435 1568.01 76.4113 1567.91 55.9853C1578.49 55.9628 1589.08 55.8103 1599.66 55.5277ZM1597.68 139.232C1608.51 139.525 1625.97 140.435 1636.15 139.341C1647.13 137.715 1653.52 137.039 1662.92 130.82C1667.91 123.113 1668.63 119.048 1670.45 109.996C1665.81 90.6311 1651.13 82.2464 1631.89 83.4596C1620.3 84.3569 1608.65 84.5562 1597.03 84.0566C1597.4 102.446 1597.61 120.839 1597.68 139.232Z"/><path fill="#273B5F" d="M1363.01 56.0381L1393.01 55.9965C1392.49 85.5234 1391.01 114.282 1392.35 143.853C1392.61 149.679 1393.77 207.436 1392.09 210.794C1389 212.485 1383.46 211.936 1379.75 211.871C1375.12 211.176 1374.72 210.853 1371.47 207.079C1344.25 175.513 1318.93 141.546 1293.15 108.845C1291.15 137.23 1292.49 182.34 1292.5 211.911L1263.64 211.959C1262.1 163.955 1262.39 115.522 1262.87 67.4746C1262.91 63.7501 1263.13 59.9112 1263.34 56.1906L1286.75 56.2769C1304.55 74.285 1324.31 105.434 1341.69 125.251C1348.08 132.538 1355.16 143.799 1363.19 149.214C1364.32 118.897 1362.14 86.8256 1363.01 56.0381Z"/><path fill="#273B5F" d="M1472.75 51.2672C1503.21 49.2787 1524.37 56.4605 1542.09 81.8445C1534.3 85.6046 1526.06 89.4059 1518.64 93.7673C1506.67 83.8311 1497.06 76.9889 1480.79 76.7145C1472.42 76.7839 1458.7 78.4441 1452.82 85.1032C1440.82 98.6846 1453.72 111.169 1467.27 113.714C1489.89 117.964 1518.56 119.819 1535.45 136.25C1550.19 150.575 1548.8 184.555 1533.21 198.052C1516.63 213.102 1497.58 216.147 1475.66 215.805C1443.12 215.203 1428.42 204.47 1411.57 177.662C1419.88 173.109 1428.67 168.95 1437.2 164.783C1441.12 172.017 1444.97 177.012 1452.37 181.688C1468.29 191.749 1502.21 192.907 1513.89 175.92C1517.86 170.155 1516.63 164.603 1515.1 158.199C1492.92 132.733 1425.69 151.663 1419.73 103.137C1415.36 67.5259 1443.52 55.5059 1472.75 51.2672Z"/><path fill="#C73834" d="M1747.26 274.278C1774.82 270.023 1800.65 288.796 1805.11 316.321C1809.57 343.847 1790.99 369.816 1763.49 374.48C1735.71 379.193 1709.41 360.373 1704.9 332.557C1700.4 304.741 1719.41 278.579 1747.26 274.278ZM1758.76 367.29C1782.48 365.195 1799.99 344.245 1797.85 320.528C1795.71 296.811 1774.73 279.334 1751.02 281.518C1727.37 283.697 1709.95 304.612 1712.08 328.266C1714.21 351.92 1735.1 369.38 1758.76 367.29Z"/><path fill="#273B5F" d="M796.53 56.2015L924.261 56.2595C924.697 64.81 924.518 74.3475 924.536 82.9786L876.559 83.0573C875.261 108.869 875.628 137.709 875.476 163.75C875.334 179.828 875.334 195.907 875.476 211.985L846.384 211.971L845.32 83.033L797.1 83.0228C797.192 73.6227 797.311 65.61 796.53 56.2015Z"/><path fill="#273B5F" d="M2040.67 56.2743C2079.46 54.7687 2128.22 56.1796 2167.79 56.1961C2167.32 66.0547 2167.51 73.1126 2167.92 82.9166L2118.35 82.9925L2118.41 161.415C2118.73 178.412 2119.08 194.902 2118.64 211.917L2089.62 211.913C2090.12 169.754 2090.75 124.997 2089.28 82.9566L2040.76 82.9909C2040.58 74.0864 2040.55 65.1797 2040.67 56.2743Z"/><path fill="#C73834" d="M1200.08 275.19C1224.67 274.754 1270.6 267.754 1274.74 301.345C1275.83 309.678 1273.52 318.1 1268.31 324.696C1261.23 333.684 1255.12 334.955 1244.86 336.189C1250.11 343.091 1275.03 367.133 1274.6 373.09C1271.21 374.718 1271.24 373.994 1266.82 373.377L1234.04 336.661C1226.67 336.11 1214.92 336.312 1207.22 336.228C1207.53 342.948 1209.97 371.404 1203.58 374.171C1203 373.787 1202.45 373.375 1201.95 372.88C1197.28 368.214 1199.94 287.376 1200.08 275.19ZM1206.99 329.296C1224.69 329.348 1243.08 331.593 1259.08 324.395C1265.03 317.378 1267.01 311.287 1266.25 302.156C1264.11 276.578 1225.4 281.723 1207.68 282.399C1207.8 298.035 1207.57 313.671 1206.99 329.296Z"/><path fill="#C73834" d="M2003.05 275.04C2006.07 274.857 2007.51 274.617 2010.38 275.671C2018.68 286.687 2049.14 356.509 2053.68 371.434C2053.2 373.879 2053.66 373.062 2051.35 374.673C2045.66 373.513 2038.19 355.437 2035.73 349.904L2015.25 349.862L1977.99 349.798C1975.17 359.15 1971.68 368.61 1963.11 374.463L1961.47 373.389C1961.17 360.172 1996.64 292.739 2003.05 275.04ZM1981.73 342.027L2007.5 342.008L2033 341.895C2027.26 331.056 2012.39 290.615 2007.43 285.753C2000.11 299.556 1987.34 327.042 1981.73 342.027Z"/><path fill="#C73834" d="M1471.09 275.159C1474.32 274.955 1475.12 274.897 1478.23 275.739C1483.82 279.869 1519.67 361.647 1522.46 372.287L1521.14 374.208L1518.74 373.906C1511.17 368.718 1507.26 358.34 1504.02 349.982L1480.5 350.048L1445.66 350.081C1445.62 350.261 1445.57 350.441 1445.52 350.62C1443.34 358.266 1437.92 370.043 1430.69 374.048L1428.89 372.771C1429.92 358.566 1456 313.994 1461.82 297.448C1464.35 290.27 1468.76 283.981 1471.09 275.159ZM1450.05 342.021L1476.5 342.052L1502.36 342.024C1498.93 334.847 1478.46 288.762 1475.25 286.4C1469.02 297.65 1455.53 328.698 1450.05 342.021Z"/><path fill="#C73834" d="M1384.36 274.826C1387.04 275.056 1389.03 274.926 1390.98 276.779C1394.08 287.472 1391.21 327.119 1391.9 341.667C1392.36 351.303 1392.86 367.301 1392.86 377.087C1370.46 356.242 1343.93 316.576 1322.69 294.09C1322.25 320.317 1323.33 348.327 1322.19 374.116C1318.81 373.497 1318.16 373.96 1315.99 371.911C1315.54 368.774 1314.73 360.583 1314.74 357.842C1314.78 347.488 1312.75 280.331 1316.9 276.502C1336.39 291.305 1365.56 339.15 1384.98 355.144C1381.91 335.243 1383.89 296.597 1384.36 274.826Z"/><path fill="#C73834" fill-opacity="0.98823529" d="M858.55 274.847C866.503 278.183 918.417 345.753 927.809 357.582C925.747 338.639 925.574 298.587 927.785 278.404C927.988 276.555 929.992 275.748 931.44 275.093L933.038 276.538C936.132 284.403 934.594 360.857 933.879 373.936C927.216 370.438 893.366 327.087 885.308 317.854C879.435 311.125 873.138 299.959 864.605 293.588C864.935 296.428 865.2 299.275 865.398 302.126C866.725 321.177 865.696 348.599 864.897 368.221C864.83 369.869 862.373 372.994 861.224 374.315L859.443 374.347C857.094 370.382 856.891 283.072 858.55 274.847Z"/><path fill="#C73834" fill-opacity="0.98823529" d="M1847.51 274.533C1857.47 280.149 1905.38 342.841 1915.19 355.649C1917.11 330.883 1914.66 305.287 1916.16 280.484C1916.29 278.377 1918.29 276.194 1919.97 275.031L1921.64 275.584C1923.77 279.164 1924.89 369.499 1922.89 373.859C1914.4 368.479 1864.28 305.389 1854.3 292.552L1854.31 292.991C1854.64 313.384 1853.9 334.114 1854.23 354.558C1854.33 360.75 1854.61 369.436 1850.23 373.976L1848.2 373.938C1847.81 373.307 1847.34 372.55 1846.79 371.667C1848.15 349.515 1844.35 293.376 1847.51 274.533Z"/><path fill="#C73834" d="M1535.83 274.994C1556.73 274.706 1591.11 274.115 1612.92 275.798C1614.32 275.906 1614.57 277.286 1615.02 278.49L1613.87 280.77C1609.06 283.681 1586.62 282.683 1580.08 282.63L1580 340.967C1580.06 349.491 1583.4 372.763 1573.8 373.827C1570.01 368.835 1571.65 293.926 1571.97 282.76C1562.57 282.726 1548.04 284.568 1539 281.282C1536.75 280.464 1536.47 277.366 1535.83 274.994Z"/><path fill="#C73834" d="M2093.07 274.972C2096.22 274.841 2098.38 274.705 2100.64 276.787C2101.88 285.708 2101.54 301.146 2101.53 310.654C2101.42 329.168 2101.45 347.683 2101.62 366.196C2111.43 366.066 2146.72 364.968 2154.33 366.543C2157.15 369.393 2156.48 369.513 2157.68 373.905C2137.47 374.592 2113.82 374.028 2093.35 374.053C2092.34 343.644 2092.7 305.25 2093.07 274.972Z"/><path fill="#C73834" d="M1089.51 286.266C1089.34 283.169 1088.61 278.098 1090.13 275.674C1098.23 274.153 1153.47 273.312 1157.89 278.9C1153.45 284.959 1106.09 282.776 1096.75 282.768L1096.5 320.857C1104.89 320.795 1148.66 320.033 1154.18 321.847C1155.54 324.691 1155.44 323.529 1154.63 326.508C1143.66 330.057 1109.03 325.638 1096.5 328.571L1094.34 328.231C1089.27 322.215 1091.96 289.842 1089.51 286.266Z"/><path fill="#C73834" d="M804.369 274.64C807.165 274.868 809.648 274.74 811.678 276.636C812.509 279.993 812.25 300.025 812.28 304.428L812.683 374.107C809.704 374.028 806.904 374.328 804.645 372.474C803.796 368.818 803.919 346.949 803.954 341.997C804.109 319.818 803.434 296.742 804.369 274.64Z"/><path fill="#C73834" fill-opacity="0.98431373" d="M1653.83 274.885C1656.58 274.874 1657.56 274.76 1660.02 276.142C1663.03 282.01 1660.9 361.991 1660.76 374.178C1658.22 373.968 1657.42 373.957 1655.14 372.627C1652.21 367.85 1653.39 286.332 1653.83 274.885Z"/><path fill="#C73834" fill-opacity="0.98431373" d="M1003.2 282.029C1005.96 281.294 1017.87 281.042 1019.87 282.091C1019.09 282.278 1018.15 282.468 1017.46 282.865C1011.7 286.181 1018.67 361.909 1014.73 373.379L1012.8 373.862C1005.72 370.781 1008.98 360.951 1008.09 355.336C1006.25 343.643 1010.43 290.995 1007.05 283.343L1003.2 282.029Z"/><path fill="#C73834" d="M1003.2 282.029C994.456 282.963 985.649 283.011 976.888 282.186C973.254 281.844 972.252 281.914 971.947 278.305C975.852 273.147 1001.88 274.843 1008.69 275.061C1020.3 275.433 1038.84 273.257 1049.49 277.056L1051.16 278.681C1048.73 284.304 1025.65 283.056 1019.87 282.091C1017.87 281.042 1005.96 281.294 1003.2 282.029Z"/><path fill="#C73834" d="M1095.93 365.678C1114.84 367.233 1134.83 365.241 1153.8 366.34C1156.1 366.473 1157.09 367.749 1158.56 369.258C1157.88 377.753 1102.44 373.135 1092.32 374.503C1093.29 369.683 1092.65 368.281 1095.93 365.678Z"/><path fill="#C73834" fill-opacity="0.98431373" d="M1089.51 286.266C1091.96 289.842 1089.27 322.215 1094.34 328.231L1096.5 328.571C1097.25 334.459 1097.71 361.061 1095.93 365.678C1092.65 368.281 1093.29 369.683 1092.32 374.503L1090.02 373.156C1088.64 369.843 1089.36 295.414 1089.51 286.266Z"/></svg>